<svg width="306" height="100" viewBox="0 0 306 100" fill="none" xmlns="http://www.w3.org/2000/svg">
<g filter="url(#filter0_d_77_178)">
<rect width="276" height="70" fill="#275D9F"/>
<path d="M83.112 30L86.948 20.2H88.824L92.646 30H90.49L88.516 24.722C88.46 24.5727 88.39 24.3813 88.306 24.148C88.2313 23.9147 88.152 23.6673 88.068 23.406C87.984 23.1447 87.9047 22.8973 87.83 22.664C87.7553 22.4213 87.6993 22.2207 87.662 22.062L88.04 22.048C87.984 22.2627 87.9187 22.4867 87.844 22.72C87.7787 22.944 87.7087 23.1773 87.634 23.42C87.5593 23.6533 87.48 23.882 87.396 24.106C87.312 24.33 87.2327 24.5493 87.158 24.764L85.184 30H83.112ZM84.89 27.942L85.576 26.248H90.07L90.77 27.942H84.89ZM93.742 30V22.594H95.646L95.702 24.106L95.31 24.274C95.4127 23.938 95.5947 23.6347 95.856 23.364C96.1267 23.084 96.4487 22.86 96.822 22.692C97.1954 22.524 97.5874 22.44 97.998 22.44C98.558 22.44 99.0247 22.552 99.398 22.776C99.7807 23 100.065 23.3407 100.252 23.798C100.448 24.246 100.546 24.8013 100.546 25.464V30H98.558V25.618C98.558 25.282 98.5114 25.002 98.418 24.778C98.3247 24.554 98.18 24.3907 97.984 24.288C97.7974 24.176 97.564 24.1293 97.284 24.148C97.06 24.148 96.85 24.1853 96.654 24.26C96.4674 24.3253 96.304 24.4233 96.164 24.554C96.0334 24.6847 95.926 24.834 95.842 25.002C95.7674 25.17 95.73 25.352 95.73 25.548V30H94.75C94.5354 30 94.344 30 94.176 30C94.008 30 93.8634 30 93.742 30ZM105.895 30.14C105.139 30.14 104.462 29.9767 103.865 29.65C103.277 29.314 102.81 28.8567 102.465 28.278C102.129 27.6993 101.961 27.0367 101.961 26.29C101.961 25.5433 102.129 24.8853 102.465 24.316C102.81 23.7373 103.277 23.28 103.865 22.944C104.462 22.608 105.139 22.44 105.895 22.44C106.642 22.44 107.309 22.608 107.897 22.944C108.494 23.28 108.961 23.7373 109.297 24.316C109.633 24.8853 109.801 25.5433 109.801 26.29C109.801 27.0367 109.633 27.6993 109.297 28.278C108.961 28.8567 108.494 29.314 107.897 29.65C107.309 29.9767 106.642 30.14 105.895 30.14ZM105.895 28.404C106.259 28.404 106.586 28.3153 106.875 28.138C107.164 27.9513 107.388 27.6993 107.547 27.382C107.715 27.0553 107.799 26.6913 107.799 26.29C107.799 25.8793 107.715 25.5153 107.547 25.198C107.388 24.8713 107.164 24.6193 106.875 24.442C106.586 24.2553 106.259 24.162 105.895 24.162C105.522 24.162 105.19 24.2553 104.901 24.442C104.612 24.6287 104.383 24.8807 104.215 25.198C104.047 25.5153 103.968 25.8793 103.977 26.29C103.968 26.6913 104.047 27.0553 104.215 27.382C104.383 27.6993 104.612 27.9513 104.901 28.138C105.19 28.3153 105.522 28.404 105.895 28.404ZM113.789 30.14C113.098 30.14 112.482 30.028 111.941 29.804C111.409 29.5707 110.979 29.2533 110.653 28.852L111.885 27.788C112.174 28.096 112.496 28.32 112.851 28.46C113.205 28.5907 113.56 28.656 113.915 28.656C114.055 28.656 114.181 28.642 114.293 28.614C114.414 28.5767 114.517 28.53 114.601 28.474C114.685 28.4087 114.745 28.334 114.783 28.25C114.829 28.1567 114.853 28.0587 114.853 27.956C114.853 27.7507 114.769 27.5873 114.601 27.466C114.507 27.4193 114.363 27.3633 114.167 27.298C113.971 27.2233 113.719 27.144 113.411 27.06C112.935 26.9387 112.529 26.7987 112.193 26.64C111.866 26.472 111.605 26.2853 111.409 26.08C111.241 25.884 111.11 25.674 111.017 25.45C110.933 25.2167 110.891 24.96 110.891 24.68C110.891 24.344 110.965 24.0407 111.115 23.77C111.264 23.49 111.469 23.252 111.731 23.056C112.001 22.86 112.309 22.7107 112.655 22.608C113 22.496 113.364 22.44 113.747 22.44C114.129 22.44 114.503 22.4867 114.867 22.58C115.231 22.6733 115.567 22.8087 115.875 22.986C116.192 23.154 116.467 23.3547 116.701 23.588L115.637 24.764C115.469 24.6053 115.277 24.4607 115.063 24.33C114.857 24.1993 114.643 24.0967 114.419 24.022C114.195 23.9473 113.994 23.91 113.817 23.91C113.658 23.91 113.513 23.924 113.383 23.952C113.261 23.98 113.159 24.022 113.075 24.078C112.991 24.134 112.925 24.2087 112.879 24.302C112.841 24.386 112.823 24.4793 112.823 24.582C112.823 24.6847 112.846 24.7827 112.893 24.876C112.949 24.9693 113.023 25.0487 113.117 25.114C113.219 25.17 113.369 25.2353 113.565 25.31C113.77 25.3847 114.045 25.4687 114.391 25.562C114.839 25.6833 115.217 25.8187 115.525 25.968C115.842 26.1173 116.094 26.29 116.281 26.486C116.439 26.654 116.556 26.8453 116.631 27.06C116.705 27.2747 116.743 27.5127 116.743 27.774C116.743 28.2313 116.612 28.642 116.351 29.006C116.099 29.3607 115.749 29.6407 115.301 29.846C114.853 30.042 114.349 30.14 113.789 30.14ZM125.351 30.14C124.707 30.14 124.128 29.9767 123.615 29.65C123.102 29.314 122.696 28.8613 122.397 28.292C122.108 27.7133 121.963 27.046 121.963 26.29C121.963 25.5527 122.108 24.8947 122.397 24.316C122.696 23.7373 123.097 23.28 123.601 22.944C124.114 22.608 124.698 22.44 125.351 22.44C125.696 22.44 126.028 22.496 126.345 22.608C126.672 22.7107 126.961 22.8553 127.213 23.042C127.474 23.2287 127.684 23.4387 127.843 23.672C128.002 23.896 128.09 24.134 128.109 24.386L127.605 24.47V19.64H129.593V30H127.717L127.633 28.292L128.025 28.334C128.006 28.5673 127.922 28.7913 127.773 29.006C127.624 29.2207 127.423 29.4167 127.171 29.594C126.928 29.762 126.648 29.8973 126.331 30C126.023 30.0933 125.696 30.14 125.351 30.14ZM125.799 28.488C126.172 28.488 126.499 28.3947 126.779 28.208C127.059 28.0213 127.278 27.7647 127.437 27.438C127.596 27.1113 127.675 26.7287 127.675 26.29C127.675 25.8607 127.596 25.4827 127.437 25.156C127.278 24.82 127.059 24.5633 126.779 24.386C126.499 24.1993 126.172 24.106 125.799 24.106C125.426 24.106 125.099 24.1993 124.819 24.386C124.548 24.5633 124.334 24.82 124.175 25.156C124.026 25.4827 123.951 25.8607 123.951 26.29C123.951 26.7287 124.026 27.1113 124.175 27.438C124.334 27.7647 124.548 28.0213 124.819 28.208C125.099 28.3947 125.426 28.488 125.799 28.488ZM135.045 30.14C134.242 30.14 133.542 29.9767 132.945 29.65C132.348 29.3233 131.881 28.8753 131.545 28.306C131.209 27.7367 131.041 27.0833 131.041 26.346C131.041 25.7767 131.134 25.254 131.321 24.778C131.508 24.302 131.769 23.8913 132.105 23.546C132.441 23.1913 132.838 22.9207 133.295 22.734C133.762 22.538 134.266 22.44 134.807 22.44C135.311 22.44 135.778 22.5333 136.207 22.72C136.636 22.8973 137.005 23.154 137.313 23.49C137.63 23.8167 137.873 24.204 138.041 24.652C138.209 25.1 138.284 25.59 138.265 26.122L138.251 26.738H132.301L131.979 25.52H136.613L136.389 25.772V25.464C136.37 25.212 136.286 24.9833 136.137 24.778C135.997 24.5727 135.815 24.414 135.591 24.302C135.367 24.19 135.115 24.134 134.835 24.134C134.424 24.134 134.074 24.2133 133.785 24.372C133.505 24.5307 133.29 24.764 133.141 25.072C132.992 25.38 132.917 25.7533 132.917 26.192C132.917 26.64 133.01 27.0273 133.197 27.354C133.393 27.6807 133.664 27.9373 134.009 28.124C134.364 28.3013 134.779 28.39 135.255 28.39C135.582 28.39 135.88 28.3387 136.151 28.236C136.422 28.1333 136.711 27.956 137.019 27.704L137.971 29.034C137.7 29.2767 137.402 29.482 137.075 29.65C136.748 29.8087 136.412 29.93 136.067 30.014C135.722 30.098 135.381 30.14 135.045 30.14ZM147.541 30.14C146.739 30.14 146.039 29.9767 145.441 29.65C144.844 29.3233 144.377 28.8753 144.041 28.306C143.705 27.7367 143.537 27.0833 143.537 26.346C143.537 25.7767 143.631 25.254 143.817 24.778C144.004 24.302 144.265 23.8913 144.601 23.546C144.937 23.1913 145.334 22.9207 145.791 22.734C146.258 22.538 146.762 22.44 147.303 22.44C147.807 22.44 148.274 22.5333 148.703 22.72C149.133 22.8973 149.501 23.154 149.809 23.49C150.127 23.8167 150.369 24.204 150.537 24.652C150.705 25.1 150.78 25.59 150.761 26.122L150.747 26.738H144.797L144.475 25.52H149.109L148.885 25.772V25.464C148.867 25.212 148.783 24.9833 148.633 24.778C148.493 24.5727 148.311 24.414 148.087 24.302C147.863 24.19 147.611 24.134 147.331 24.134C146.921 24.134 146.571 24.2133 146.281 24.372C146.001 24.5307 145.787 24.764 145.637 25.072C145.488 25.38 145.413 25.7533 145.413 26.192C145.413 26.64 145.507 27.0273 145.693 27.354C145.889 27.6807 146.16 27.9373 146.505 28.124C146.86 28.3013 147.275 28.39 147.751 28.39C148.078 28.39 148.377 28.3387 148.647 28.236C148.918 28.1333 149.207 27.956 149.515 27.704L150.467 29.034C150.197 29.2767 149.898 29.482 149.571 29.65C149.245 29.8087 148.909 29.93 148.563 30.014C148.218 30.098 147.877 30.14 147.541 30.14ZM156.865 30L155.031 27.382L154.471 26.598L151.475 22.594H153.883L155.675 25.128L156.291 25.968L159.245 30H156.865ZM151.447 30L154.401 25.954L155.493 27.256L153.785 30H151.447ZM156.207 26.668L155.143 25.366L156.725 22.594H159.063L156.207 26.668ZM160.474 33.08V22.594H162.392L162.448 24.26L162.084 24.134C162.15 23.8353 162.308 23.56 162.56 23.308C162.822 23.056 163.144 22.8507 163.526 22.692C163.909 22.5333 164.31 22.454 164.73 22.454C165.374 22.454 165.944 22.622 166.438 22.958C166.942 23.2847 167.339 23.7373 167.628 24.316C167.927 24.8853 168.076 25.5433 168.076 26.29C168.076 27.0273 167.932 27.6853 167.642 28.264C167.353 28.8427 166.956 29.3 166.452 29.636C165.948 29.9627 165.374 30.126 164.73 30.126C164.301 30.126 163.89 30.0467 163.498 29.888C163.116 29.72 162.789 29.5007 162.518 29.23C162.248 28.9593 162.08 28.67 162.014 28.362L162.476 28.166V33.08H160.474ZM164.282 28.418C164.646 28.418 164.968 28.3293 165.248 28.152C165.528 27.9747 165.748 27.7273 165.906 27.41C166.065 27.0833 166.144 26.71 166.144 26.29C166.144 25.87 166.065 25.5013 165.906 25.184C165.748 24.8667 165.528 24.6193 165.248 24.442C164.978 24.2647 164.656 24.176 164.282 24.176C163.909 24.176 163.582 24.2647 163.302 24.442C163.022 24.61 162.803 24.8573 162.644 25.184C162.486 25.5013 162.406 25.87 162.406 26.29C162.406 26.71 162.486 27.0833 162.644 27.41C162.803 27.7273 163.022 27.9747 163.302 28.152C163.582 28.3293 163.909 28.418 164.282 28.418ZM173.094 30.14C172.291 30.14 171.591 29.9767 170.994 29.65C170.397 29.3233 169.93 28.8753 169.594 28.306C169.258 27.7367 169.09 27.0833 169.09 26.346C169.09 25.7767 169.183 25.254 169.37 24.778C169.557 24.302 169.818 23.8913 170.154 23.546C170.49 23.1913 170.887 22.9207 171.344 22.734C171.811 22.538 172.315 22.44 172.856 22.44C173.36 22.44 173.827 22.5333 174.256 22.72C174.685 22.8973 175.054 23.154 175.362 23.49C175.679 23.8167 175.922 24.204 176.09 24.652C176.258 25.1 176.333 25.59 176.314 26.122L176.3 26.738H170.35L170.028 25.52H174.662L174.438 25.772V25.464C174.419 25.212 174.335 24.9833 174.186 24.778C174.046 24.5727 173.864 24.414 173.64 24.302C173.416 24.19 173.164 24.134 172.884 24.134C172.473 24.134 172.123 24.2133 171.834 24.372C171.554 24.5307 171.339 24.764 171.19 25.072C171.041 25.38 170.966 25.7533 170.966 26.192C170.966 26.64 171.059 27.0273 171.246 27.354C171.442 27.6807 171.713 27.9373 172.058 28.124C172.413 28.3013 172.828 28.39 173.304 28.39C173.631 28.39 173.929 28.3387 174.2 28.236C174.471 28.1333 174.76 27.956 175.068 27.704L176.02 29.034C175.749 29.2767 175.451 29.482 175.124 29.65C174.797 29.8087 174.461 29.93 174.116 30.014C173.771 30.098 173.43 30.14 173.094 30.14ZM177.783 30V22.594H179.701L179.771 24.974L179.435 24.484C179.547 24.1013 179.729 23.756 179.981 23.448C180.233 23.1307 180.527 22.8833 180.863 22.706C181.208 22.5287 181.568 22.44 181.941 22.44C182.1 22.44 182.254 22.454 182.403 22.482C182.552 22.51 182.678 22.5427 182.781 22.58L182.249 24.764C182.137 24.708 182.002 24.6613 181.843 24.624C181.684 24.5773 181.521 24.554 181.353 24.554C181.129 24.554 180.919 24.596 180.723 24.68C180.536 24.7547 180.373 24.8667 180.233 25.016C180.093 25.156 179.981 25.324 179.897 25.52C179.822 25.716 179.785 25.9307 179.785 26.164V30H177.783ZM184.09 30V22.594H186.078V30H184.09ZM185.07 21.068C184.687 21.068 184.388 20.9747 184.174 20.788C183.959 20.6013 183.852 20.3353 183.852 19.99C183.852 19.6727 183.959 19.416 184.174 19.22C184.398 19.0147 184.696 18.912 185.07 18.912C185.452 18.912 185.751 19.01 185.966 19.206C186.18 19.3927 186.288 19.654 186.288 19.99C186.288 20.3167 186.176 20.578 185.952 20.774C185.737 20.97 185.443 21.068 185.07 21.068ZM191.715 30.14C190.912 30.14 190.212 29.9767 189.615 29.65C189.018 29.3233 188.551 28.8753 188.215 28.306C187.879 27.7367 187.711 27.0833 187.711 26.346C187.711 25.7767 187.804 25.254 187.991 24.778C188.178 24.302 188.439 23.8913 188.775 23.546C189.111 23.1913 189.508 22.9207 189.965 22.734C190.432 22.538 190.936 22.44 191.477 22.44C191.981 22.44 192.448 22.5333 192.877 22.72C193.306 22.8973 193.675 23.154 193.983 23.49C194.3 23.8167 194.543 24.204 194.711 24.652C194.879 25.1 194.954 25.59 194.935 26.122L194.921 26.738H188.971L188.649 25.52H193.283L193.059 25.772V25.464C193.04 25.212 192.956 24.9833 192.807 24.778C192.667 24.5727 192.485 24.414 192.261 24.302C192.037 24.19 191.785 24.134 191.505 24.134C191.094 24.134 190.744 24.2133 190.455 24.372C190.175 24.5307 189.96 24.764 189.811 25.072C189.662 25.38 189.587 25.7533 189.587 26.192C189.587 26.64 189.68 27.0273 189.867 27.354C190.063 27.6807 190.334 27.9373 190.679 28.124C191.034 28.3013 191.449 28.39 191.925 28.39C192.252 28.39 192.55 28.3387 192.821 28.236C193.092 28.1333 193.381 27.956 193.689 27.704L194.641 29.034C194.37 29.2767 194.072 29.482 193.745 29.65C193.418 29.8087 193.082 29.93 192.737 30.014C192.392 30.098 192.051 30.14 191.715 30.14ZM189.657 21.558L188.943 20.942L190.833 19.206H192.121L194.011 20.942L193.297 21.558L191.267 20.41H191.687L189.657 21.558ZM196.404 30V22.594H198.308L198.364 24.106L197.972 24.274C198.075 23.938 198.257 23.6347 198.518 23.364C198.789 23.084 199.111 22.86 199.484 22.692C199.857 22.524 200.249 22.44 200.66 22.44C201.22 22.44 201.687 22.552 202.06 22.776C202.443 23 202.727 23.3407 202.914 23.798C203.11 24.246 203.208 24.8013 203.208 25.464V30H201.22V25.618C201.22 25.282 201.173 25.002 201.08 24.778C200.987 24.554 200.842 24.3907 200.646 24.288C200.459 24.176 200.226 24.1293 199.946 24.148C199.722 24.148 199.512 24.1853 199.316 24.26C199.129 24.3253 198.966 24.4233 198.826 24.554C198.695 24.6847 198.588 24.834 198.504 25.002C198.429 25.17 198.392 25.352 198.392 25.548V30H197.412C197.197 30 197.006 30 196.838 30C196.67 30 196.525 30 196.404 30ZM208.333 30.14C207.624 30.14 206.989 29.972 206.429 29.636C205.869 29.3 205.426 28.8427 205.099 28.264C204.782 27.6853 204.623 27.0273 204.623 26.29C204.623 25.562 204.782 24.9087 205.099 24.33C205.426 23.742 205.869 23.28 206.429 22.944C206.989 22.608 207.624 22.44 208.333 22.44C208.996 22.44 209.602 22.5613 210.153 22.804C210.704 23.0467 211.133 23.3827 211.441 23.812L210.349 25.128C210.218 24.9507 210.055 24.792 209.859 24.652C209.663 24.5027 209.448 24.386 209.215 24.302C208.991 24.218 208.758 24.176 208.515 24.176C208.132 24.176 207.792 24.2693 207.493 24.456C207.204 24.6333 206.975 24.8807 206.807 25.198C206.639 25.5153 206.555 25.8793 206.555 26.29C206.555 26.6913 206.639 27.0507 206.807 27.368C206.984 27.676 207.222 27.928 207.521 28.124C207.82 28.3107 208.156 28.404 208.529 28.404C208.772 28.404 209 28.3713 209.215 28.306C209.43 28.2313 209.63 28.124 209.817 27.984C210.013 27.844 210.19 27.676 210.349 27.48L211.427 28.796C211.11 29.1973 210.671 29.524 210.111 29.776C209.551 30.0187 208.958 30.14 208.333 30.14ZM212.869 30V22.594H214.857V30H212.869ZM213.849 21.068C213.466 21.068 213.168 20.9747 212.953 20.788C212.738 20.6013 212.631 20.3353 212.631 19.99C212.631 19.6727 212.738 19.416 212.953 19.22C213.177 19.0147 213.476 18.912 213.849 18.912C214.232 18.912 214.53 19.01 214.745 19.206C214.96 19.3927 215.067 19.654 215.067 19.99C215.067 20.3167 214.955 20.578 214.731 20.774C214.516 20.97 214.222 21.068 213.849 21.068ZM219.752 30.14C219.136 30.14 218.581 29.972 218.086 29.636C217.592 29.3 217.2 28.8427 216.91 28.264C216.621 27.6853 216.476 27.0227 216.476 26.276C216.476 25.5293 216.621 24.8713 216.91 24.302C217.209 23.7233 217.61 23.2707 218.114 22.944C218.618 22.608 219.192 22.44 219.836 22.44C220.2 22.44 220.532 22.496 220.83 22.608C221.138 22.7107 221.404 22.8553 221.628 23.042C221.862 23.2287 222.058 23.4433 222.216 23.686C222.375 23.9287 222.487 24.19 222.552 24.47L222.132 24.4V22.594H224.106V30H222.104V28.222L222.552 28.18C222.478 28.4413 222.356 28.6887 222.188 28.922C222.02 29.1553 221.81 29.3653 221.558 29.552C221.316 29.7293 221.04 29.874 220.732 29.986C220.424 30.0887 220.098 30.14 219.752 30.14ZM220.298 28.418C220.672 28.418 220.998 28.3293 221.278 28.152C221.558 27.9747 221.773 27.7273 221.922 27.41C222.081 27.0833 222.16 26.7053 222.16 26.276C222.16 25.856 222.081 25.4873 221.922 25.17C221.773 24.8527 221.558 24.6053 221.278 24.428C220.998 24.2413 220.672 24.148 220.298 24.148C219.934 24.148 219.612 24.2413 219.332 24.428C219.062 24.6053 218.847 24.8527 218.688 25.17C218.53 25.4873 218.45 25.856 218.45 26.276C218.45 26.7053 218.53 27.0833 218.688 27.41C218.847 27.7273 219.062 27.9747 219.332 28.152C219.612 28.3293 219.934 28.418 220.298 28.418ZM87.508 48.14C86.7053 48.14 86.0053 47.9767 85.408 47.65C84.8107 47.3233 84.344 46.8753 84.008 46.306C83.672 45.7367 83.504 45.0833 83.504 44.346C83.504 43.7767 83.5973 43.254 83.784 42.778C83.9707 42.302 84.232 41.8913 84.568 41.546C84.904 41.1913 85.3007 40.9207 85.758 40.734C86.2247 40.538 86.7287 40.44 87.27 40.44C87.774 40.44 88.2407 40.5333 88.67 40.72C89.0993 40.8973 89.468 41.154 89.776 41.49C90.0933 41.8167 90.336 42.204 90.504 42.652C90.672 43.1 90.7467 43.59 90.728 44.122L90.714 44.738H84.764L84.442 43.52H89.076L88.852 43.772V43.464C88.8333 43.212 88.7493 42.9833 88.6 42.778C88.46 42.5727 88.278 42.414 88.054 42.302C87.83 42.19 87.578 42.134 87.298 42.134C86.8873 42.134 86.5373 42.2133 86.248 42.372C85.968 42.5307 85.7533 42.764 85.604 43.072C85.4547 43.38 85.38 43.7533 85.38 44.192C85.38 44.64 85.4733 45.0273 85.66 45.354C85.856 45.6807 86.1267 45.9373 86.472 46.124C86.8267 46.3013 87.242 46.39 87.718 46.39C88.0447 46.39 88.3433 46.3387 88.614 46.236C88.8847 46.1333 89.174 45.956 89.482 45.704L90.434 47.034C90.1633 47.2767 89.8647 47.482 89.538 47.65C89.2113 47.8087 88.8753 47.93 88.53 48.014C88.1847 48.098 87.844 48.14 87.508 48.14ZM92.1831 48V40.594H94.1011L94.1431 42.008L93.8491 42.064C93.9518 41.8213 94.0871 41.602 94.2551 41.406C94.4231 41.21 94.6191 41.042 94.8431 40.902C95.0765 40.762 95.3191 40.6547 95.5711 40.58C95.8231 40.496 96.0751 40.454 96.3271 40.454C96.7098 40.454 97.0551 40.5147 97.3631 40.636C97.6711 40.7573 97.9325 40.9487 98.1471 41.21C98.3618 41.462 98.5298 41.798 98.6511 42.218L98.3431 42.19L98.4411 41.966C98.5625 41.742 98.7165 41.5413 98.9031 41.364C99.0898 41.1773 99.2998 41.0187 99.5331 40.888C99.7665 40.748 100.009 40.6407 100.261 40.566C100.513 40.4913 100.76 40.454 101.003 40.454C101.582 40.454 102.062 40.5707 102.445 40.804C102.828 41.028 103.112 41.3687 103.299 41.826C103.495 42.2833 103.593 42.8433 103.593 43.506V48H101.605V43.646C101.605 43.31 101.558 43.0347 101.465 42.82C101.372 42.6053 101.236 42.4467 101.059 42.344C100.882 42.232 100.653 42.176 100.373 42.176C100.158 42.176 99.9578 42.2133 99.7711 42.288C99.5938 42.3533 99.4351 42.4513 99.2951 42.582C99.1645 42.7033 99.0618 42.848 98.9871 43.016C98.9125 43.184 98.8751 43.3707 98.8751 43.576V48H96.8871V43.632C96.8871 43.324 96.8358 43.0627 96.7331 42.848C96.6398 42.624 96.5045 42.456 96.3271 42.344C96.1498 42.232 95.9305 42.176 95.6691 42.176C95.4545 42.176 95.2538 42.2133 95.0671 42.288C94.8898 42.3533 94.7358 42.4513 94.6051 42.582C94.4745 42.7033 94.3671 42.848 94.2831 43.016C94.2085 43.184 94.1711 43.366 94.1711 43.562V48H92.1831ZM110.059 48V38.2H114.315C114.968 38.2 115.519 38.298 115.967 38.494C116.424 38.6807 116.77 38.956 117.003 39.32C117.236 39.684 117.353 40.118 117.353 40.622C117.353 41.182 117.213 41.6487 116.933 42.022C116.653 42.3953 116.252 42.652 115.729 42.792L115.715 42.512C116.144 42.6147 116.522 42.7827 116.849 43.016C117.176 43.2493 117.428 43.5387 117.605 43.884C117.782 44.2293 117.871 44.6213 117.871 45.06C117.871 45.5453 117.792 45.9747 117.633 46.348C117.474 46.712 117.241 47.0153 116.933 47.258C116.625 47.5007 116.261 47.6873 115.841 47.818C115.43 47.9393 114.968 48 114.455 48H110.059ZM112.075 46.18H114.371C114.67 46.18 114.922 46.138 115.127 46.054C115.342 45.9607 115.505 45.8207 115.617 45.634C115.729 45.4473 115.785 45.228 115.785 44.976C115.785 44.7333 115.724 44.528 115.603 44.36C115.482 44.192 115.309 44.066 115.085 43.982C114.87 43.8887 114.609 43.842 114.301 43.842H112.075V46.18ZM112.075 42.176H114.063C114.315 42.176 114.534 42.1293 114.721 42.036C114.908 41.9427 115.048 41.8167 115.141 41.658C115.244 41.4993 115.295 41.3127 115.295 41.098C115.295 40.7527 115.183 40.4867 114.959 40.3C114.735 40.1133 114.399 40.02 113.951 40.02H112.075V42.176ZM122.048 48.14C121.507 48.14 121.04 48.0233 120.648 47.79C120.265 47.5473 119.967 47.2067 119.752 46.768C119.547 46.32 119.444 45.7833 119.444 45.158V40.594H121.432V44.836C121.432 45.172 121.488 45.466 121.6 45.718C121.712 45.9607 121.871 46.1473 122.076 46.278C122.281 46.4087 122.533 46.474 122.832 46.474C123.047 46.474 123.247 46.4413 123.434 46.376C123.621 46.3013 123.779 46.1987 123.91 46.068C124.041 45.9373 124.143 45.7833 124.218 45.606C124.293 45.4287 124.33 45.2373 124.33 45.032V40.594H126.318V48H124.428L124.358 46.474L124.722 46.306C124.61 46.6513 124.423 46.964 124.162 47.244C123.901 47.524 123.588 47.7433 123.224 47.902C122.86 48.0607 122.468 48.14 122.048 48.14ZM130.81 48.14C130.12 48.14 129.504 48.028 128.962 47.804C128.43 47.5707 128.001 47.2533 127.674 46.852L128.906 45.788C129.196 46.096 129.518 46.32 129.872 46.46C130.227 46.5907 130.582 46.656 130.936 46.656C131.076 46.656 131.202 46.642 131.314 46.614C131.436 46.5767 131.538 46.53 131.622 46.474C131.706 46.4087 131.767 46.334 131.804 46.25C131.851 46.1567 131.874 46.0587 131.874 45.956C131.874 45.7507 131.79 45.5873 131.622 45.466C131.529 45.4193 131.384 45.3633 131.188 45.298C130.992 45.2233 130.74 45.144 130.432 45.06C129.956 44.9387 129.55 44.7987 129.214 44.64C128.888 44.472 128.626 44.2853 128.43 44.08C128.262 43.884 128.132 43.674 128.038 43.45C127.954 43.2167 127.912 42.96 127.912 42.68C127.912 42.344 127.987 42.0407 128.136 41.77C128.286 41.49 128.491 41.252 128.752 41.056C129.023 40.86 129.331 40.7107 129.676 40.608C130.022 40.496 130.386 40.44 130.768 40.44C131.151 40.44 131.524 40.4867 131.888 40.58C132.252 40.6733 132.588 40.8087 132.896 40.986C133.214 41.154 133.489 41.3547 133.722 41.588L132.658 42.764C132.49 42.6053 132.299 42.4607 132.084 42.33C131.879 42.1993 131.664 42.0967 131.44 42.022C131.216 41.9473 131.016 41.91 130.838 41.91C130.68 41.91 130.535 41.924 130.404 41.952C130.283 41.98 130.18 42.022 130.096 42.078C130.012 42.134 129.947 42.2087 129.9 42.302C129.863 42.386 129.844 42.4793 129.844 42.582C129.844 42.6847 129.868 42.7827 129.914 42.876C129.97 42.9693 130.045 43.0487 130.138 43.114C130.241 43.17 130.39 43.2353 130.586 43.31C130.792 43.3847 131.067 43.4687 131.412 43.562C131.86 43.6833 132.238 43.8187 132.546 43.968C132.864 44.1173 133.116 44.29 133.302 44.486C133.461 44.654 133.578 44.8453 133.652 45.06C133.727 45.2747 133.764 45.5127 133.764 45.774C133.764 46.2313 133.634 46.642 133.372 47.006C133.12 47.3607 132.77 47.6407 132.322 47.846C131.874 48.042 131.37 48.14 130.81 48.14ZM135.35 48V40.594H137.338V48H135.35ZM136.33 39.068C135.947 39.068 135.648 38.9747 135.434 38.788C135.219 38.6013 135.111 38.3353 135.111 37.99C135.111 37.6727 135.219 37.416 135.434 37.22C135.658 37.0147 135.956 36.912 136.33 36.912C136.712 36.912 137.011 37.01 137.226 37.206C137.44 37.3927 137.548 37.654 137.548 37.99C137.548 38.3167 137.436 38.578 137.212 38.774C136.997 38.97 136.703 39.068 136.33 39.068ZM139.461 48V40.594H141.365L141.421 42.106L141.029 42.274C141.131 41.938 141.313 41.6347 141.575 41.364C141.845 41.084 142.167 40.86 142.541 40.692C142.914 40.524 143.306 40.44 143.717 40.44C144.277 40.44 144.743 40.552 145.117 40.776C145.499 41 145.784 41.3407 145.971 41.798C146.167 42.246 146.265 42.8013 146.265 43.464V48H144.277V43.618C144.277 43.282 144.23 43.002 144.137 42.778C144.043 42.554 143.899 42.3907 143.703 42.288C143.516 42.176 143.283 42.1293 143.003 42.148C142.779 42.148 142.569 42.1853 142.373 42.26C142.186 42.3253 142.023 42.4233 141.883 42.554C141.752 42.6847 141.645 42.834 141.561 43.002C141.486 43.17 141.449 43.352 141.449 43.548V48H140.469C140.254 48 140.063 48 139.895 48C139.727 48 139.582 48 139.461 48ZM151.684 48.14C150.881 48.14 150.181 47.9767 149.584 47.65C148.986 47.3233 148.52 46.8753 148.184 46.306C147.848 45.7367 147.68 45.0833 147.68 44.346C147.68 43.7767 147.773 43.254 147.96 42.778C148.146 42.302 148.408 41.8913 148.744 41.546C149.08 41.1913 149.476 40.9207 149.934 40.734C150.4 40.538 150.904 40.44 151.446 40.44C151.95 40.44 152.416 40.5333 152.846 40.72C153.275 40.8973 153.644 41.154 153.952 41.49C154.269 41.8167 154.512 42.204 154.68 42.652C154.848 43.1 154.922 43.59 154.904 44.122L154.89 44.738H148.94L148.618 43.52H153.252L153.028 43.772V43.464C153.009 43.212 152.925 42.9833 152.776 42.778C152.636 42.5727 152.454 42.414 152.23 42.302C152.006 42.19 151.754 42.134 151.474 42.134C151.063 42.134 150.713 42.2133 150.424 42.372C150.144 42.5307 149.929 42.764 149.78 43.072C149.63 43.38 149.556 43.7533 149.556 44.192C149.556 44.64 149.649 45.0273 149.836 45.354C150.032 45.6807 150.302 45.9373 150.648 46.124C151.002 46.3013 151.418 46.39 151.894 46.39C152.22 46.39 152.519 46.3387 152.79 46.236C153.06 46.1333 153.35 45.956 153.658 45.704L154.61 47.034C154.339 47.2767 154.04 47.482 153.714 47.65C153.387 47.8087 153.051 47.93 152.706 48.014C152.36 48.098 152.02 48.14 151.684 48.14ZM158.865 48.14C158.174 48.14 157.558 48.028 157.017 47.804C156.485 47.5707 156.056 47.2533 155.729 46.852L156.961 45.788C157.25 46.096 157.572 46.32 157.927 46.46C158.282 46.5907 158.636 46.656 158.991 46.656C159.131 46.656 159.257 46.642 159.369 46.614C159.49 46.5767 159.593 46.53 159.677 46.474C159.761 46.4087 159.822 46.334 159.859 46.25C159.906 46.1567 159.929 46.0587 159.929 45.956C159.929 45.7507 159.845 45.5873 159.677 45.466C159.584 45.4193 159.439 45.3633 159.243 45.298C159.047 45.2233 158.795 45.144 158.487 45.06C158.011 44.9387 157.605 44.7987 157.269 44.64C156.942 44.472 156.681 44.2853 156.485 44.08C156.317 43.884 156.186 43.674 156.093 43.45C156.009 43.2167 155.967 42.96 155.967 42.68C155.967 42.344 156.042 42.0407 156.191 41.77C156.34 41.49 156.546 41.252 156.807 41.056C157.078 40.86 157.386 40.7107 157.731 40.608C158.076 40.496 158.44 40.44 158.823 40.44C159.206 40.44 159.579 40.4867 159.943 40.58C160.307 40.6733 160.643 40.8087 160.951 40.986C161.268 41.154 161.544 41.3547 161.777 41.588L160.713 42.764C160.545 42.6053 160.354 42.4607 160.139 42.33C159.934 42.1993 159.719 42.0967 159.495 42.022C159.271 41.9473 159.07 41.91 158.893 41.91C158.734 41.91 158.59 41.924 158.459 41.952C158.338 41.98 158.235 42.022 158.151 42.078C158.067 42.134 158.002 42.2087 157.955 42.302C157.918 42.386 157.899 42.4793 157.899 42.582C157.899 42.6847 157.922 42.7827 157.969 42.876C158.025 42.9693 158.1 43.0487 158.193 43.114C158.296 43.17 158.445 43.2353 158.641 43.31C158.846 43.3847 159.122 43.4687 159.467 43.562C159.915 43.6833 160.293 43.8187 160.601 43.968C160.918 44.1173 161.17 44.29 161.357 44.486C161.516 44.654 161.632 44.8453 161.707 45.06C161.782 45.2747 161.819 45.5127 161.819 45.774C161.819 46.2313 161.688 46.642 161.427 47.006C161.175 47.3607 160.825 47.6407 160.377 47.846C159.929 48.042 159.425 48.14 158.865 48.14ZM165.728 48.14C165.038 48.14 164.422 48.028 163.88 47.804C163.348 47.5707 162.919 47.2533 162.592 46.852L163.824 45.788C164.114 46.096 164.436 46.32 164.79 46.46C165.145 46.5907 165.5 46.656 165.854 46.656C165.994 46.656 166.12 46.642 166.232 46.614C166.354 46.5767 166.456 46.53 166.54 46.474C166.624 46.4087 166.685 46.334 166.722 46.25C166.769 46.1567 166.792 46.0587 166.792 45.956C166.792 45.7507 166.708 45.5873 166.54 45.466C166.447 45.4193 166.302 45.3633 166.106 45.298C165.91 45.2233 165.658 45.144 165.35 45.06C164.874 44.9387 164.468 44.7987 164.132 44.64C163.806 44.472 163.544 44.2853 163.348 44.08C163.18 43.884 163.05 43.674 162.956 43.45C162.872 43.2167 162.83 42.96 162.83 42.68C162.83 42.344 162.905 42.0407 163.054 41.77C163.204 41.49 163.409 41.252 163.67 41.056C163.941 40.86 164.249 40.7107 164.594 40.608C164.94 40.496 165.304 40.44 165.686 40.44C166.069 40.44 166.442 40.4867 166.806 40.58C167.17 40.6733 167.506 40.8087 167.814 40.986C168.132 41.154 168.407 41.3547 168.64 41.588L167.576 42.764C167.408 42.6053 167.217 42.4607 167.002 42.33C166.797 42.1993 166.582 42.0967 166.358 42.022C166.134 41.9473 165.934 41.91 165.756 41.91C165.598 41.91 165.453 41.924 165.322 41.952C165.201 41.98 165.098 42.022 165.014 42.078C164.93 42.134 164.865 42.2087 164.818 42.302C164.781 42.386 164.762 42.4793 164.762 42.582C164.762 42.6847 164.786 42.7827 164.832 42.876C164.888 42.9693 164.963 43.0487 165.056 43.114C165.159 43.17 165.308 43.2353 165.504 43.31C165.71 43.3847 165.985 43.4687 166.33 43.562C166.778 43.6833 167.156 43.8187 167.464 43.968C167.782 44.1173 168.034 44.29 168.22 44.486C168.379 44.654 168.496 44.8453 168.57 45.06C168.645 45.2747 168.682 45.5127 168.682 45.774C168.682 46.2313 168.552 46.642 168.29 47.006C168.038 47.3607 167.688 47.6407 167.24 47.846C166.792 48.042 166.288 48.14 165.728 48.14ZM176.716 48V40.09H173.86V38.2H181.756V40.09H178.816V48H176.716ZM185.33 48.14C184.528 48.14 183.828 47.9767 183.23 47.65C182.633 47.3233 182.166 46.8753 181.83 46.306C181.494 45.7367 181.326 45.0833 181.326 44.346C181.326 43.7767 181.42 43.254 181.606 42.778C181.793 42.302 182.054 41.8913 182.39 41.546C182.726 41.1913 183.123 40.9207 183.58 40.734C184.047 40.538 184.551 40.44 185.092 40.44C185.596 40.44 186.063 40.5333 186.492 40.72C186.922 40.8973 187.29 41.154 187.598 41.49C187.916 41.8167 188.158 42.204 188.326 42.652C188.494 43.1 188.569 43.59 188.55 44.122L188.536 44.738H182.586L182.264 43.52H186.898L186.674 43.772V43.464C186.656 43.212 186.572 42.9833 186.422 42.778C186.282 42.5727 186.1 42.414 185.876 42.302C185.652 42.19 185.4 42.134 185.12 42.134C184.71 42.134 184.36 42.2133 184.07 42.372C183.79 42.5307 183.576 42.764 183.426 43.072C183.277 43.38 183.202 43.7533 183.202 44.192C183.202 44.64 183.296 45.0273 183.482 45.354C183.678 45.6807 183.949 45.9373 184.294 46.124C184.649 46.3013 185.064 46.39 185.54 46.39C185.867 46.39 186.166 46.3387 186.436 46.236C186.707 46.1333 186.996 45.956 187.304 45.704L188.256 47.034C187.986 47.2767 187.687 47.482 187.36 47.65C187.034 47.8087 186.698 47.93 186.352 48.014C186.007 48.098 185.666 48.14 185.33 48.14ZM193.239 48.14C192.53 48.14 191.895 47.972 191.335 47.636C190.775 47.3 190.332 46.8427 190.005 46.264C189.688 45.6853 189.529 45.0273 189.529 44.29C189.529 43.562 189.688 42.9087 190.005 42.33C190.332 41.742 190.775 41.28 191.335 40.944C191.895 40.608 192.53 40.44 193.239 40.44C193.902 40.44 194.509 40.5613 195.059 40.804C195.61 41.0467 196.039 41.3827 196.347 41.812L195.255 43.128C195.125 42.9507 194.961 42.792 194.765 42.652C194.569 42.5027 194.355 42.386 194.121 42.302C193.897 42.218 193.664 42.176 193.421 42.176C193.039 42.176 192.698 42.2693 192.399 42.456C192.11 42.6333 191.881 42.8807 191.713 43.198C191.545 43.5153 191.461 43.8793 191.461 44.29C191.461 44.6913 191.545 45.0507 191.713 45.368C191.891 45.676 192.129 45.928 192.427 46.124C192.726 46.3107 193.062 46.404 193.435 46.404C193.678 46.404 193.907 46.3713 194.121 46.306C194.336 46.2313 194.537 46.124 194.723 45.984C194.919 45.844 195.097 45.676 195.255 45.48L196.333 46.796C196.016 47.1973 195.577 47.524 195.017 47.776C194.457 48.0187 193.865 48.14 193.239 48.14ZM197.607 48V37.64H199.567V42.106L199.175 42.274C199.278 41.938 199.46 41.6347 199.721 41.364C199.992 41.084 200.314 40.86 200.687 40.692C201.061 40.524 201.453 40.44 201.863 40.44C202.423 40.44 202.89 40.552 203.263 40.776C203.646 41 203.931 41.3407 204.117 41.798C204.313 42.246 204.411 42.8013 204.411 43.464V48H202.423V43.618C202.423 43.282 202.377 43.002 202.283 42.778C202.19 42.554 202.045 42.3907 201.849 42.288C201.663 42.176 201.429 42.1293 201.149 42.148C200.925 42.148 200.715 42.1853 200.519 42.26C200.333 42.3253 200.169 42.4233 200.029 42.554C199.899 42.6847 199.791 42.834 199.707 43.002C199.633 43.17 199.595 43.352 199.595 43.548V48H198.615C198.401 48 198.209 48 198.041 48C197.873 48 197.729 48 197.607 48ZM206.316 48V40.594H208.22L208.276 42.106L207.884 42.274C207.987 41.938 208.169 41.6347 208.43 41.364C208.701 41.084 209.023 40.86 209.396 40.692C209.77 40.524 210.162 40.44 210.572 40.44C211.132 40.44 211.599 40.552 211.972 40.776C212.355 41 212.64 41.3407 212.826 41.798C213.022 42.246 213.12 42.8013 213.12 43.464V48H211.132V43.618C211.132 43.282 211.086 43.002 210.992 42.778C210.899 42.554 210.754 42.3907 210.558 42.288C210.372 42.176 210.138 42.1293 209.858 42.148C209.634 42.148 209.424 42.1853 209.228 42.26C209.042 42.3253 208.878 42.4233 208.738 42.554C208.608 42.6847 208.5 42.834 208.416 43.002C208.342 43.17 208.304 43.352 208.304 43.548V48H207.324C207.11 48 206.918 48 206.75 48C206.582 48 206.438 48 206.316 48ZM218.469 48.14C217.713 48.14 217.037 47.9767 216.439 47.65C215.851 47.314 215.385 46.8567 215.039 46.278C214.703 45.6993 214.535 45.0367 214.535 44.29C214.535 43.5433 214.703 42.8853 215.039 42.316C215.385 41.7373 215.851 41.28 216.439 40.944C217.037 40.608 217.713 40.44 218.469 40.44C219.216 40.44 219.883 40.608 220.471 40.944C221.069 41.28 221.535 41.7373 221.871 42.316C222.207 42.8853 222.375 43.5433 222.375 44.29C222.375 45.0367 222.207 45.6993 221.871 46.278C221.535 46.8567 221.069 47.314 220.471 47.65C219.883 47.9767 219.216 48.14 218.469 48.14ZM218.469 46.404C218.833 46.404 219.16 46.3153 219.449 46.138C219.739 45.9513 219.963 45.6993 220.121 45.382C220.289 45.0553 220.373 44.6913 220.373 44.29C220.373 43.8793 220.289 43.5153 220.121 43.198C219.963 42.8713 219.739 42.6193 219.449 42.442C219.16 42.2553 218.833 42.162 218.469 42.162C218.096 42.162 217.765 42.2553 217.475 42.442C217.186 42.6287 216.957 42.8807 216.789 43.198C216.621 43.5153 216.542 43.8793 216.551 44.29C216.542 44.6913 216.621 45.0553 216.789 45.382C216.957 45.6993 217.186 45.9513 217.475 46.138C217.765 46.3153 218.096 46.404 218.469 46.404ZM223.885 48V37.64H225.873V48H223.885ZM231.198 48.14C230.442 48.14 229.765 47.9767 229.168 47.65C228.58 47.314 228.113 46.8567 227.768 46.278C227.432 45.6993 227.264 45.0367 227.264 44.29C227.264 43.5433 227.432 42.8853 227.768 42.316C228.113 41.7373 228.58 41.28 229.168 40.944C229.765 40.608 230.442 40.44 231.198 40.44C231.944 40.44 232.612 40.608 233.2 40.944C233.797 41.28 234.264 41.7373 234.6 42.316C234.936 42.8853 235.104 43.5433 235.104 44.29C235.104 45.0367 234.936 45.6993 234.6 46.278C234.264 46.8567 233.797 47.314 233.2 47.65C232.612 47.9767 231.944 48.14 231.198 48.14ZM231.198 46.404C231.562 46.404 231.888 46.3153 232.178 46.138C232.467 45.9513 232.691 45.6993 232.85 45.382C233.018 45.0553 233.102 44.6913 233.102 44.29C233.102 43.8793 233.018 43.5153 232.85 43.198C232.691 42.8713 232.467 42.6193 232.178 42.442C231.888 42.2553 231.562 42.162 231.198 42.162C230.824 42.162 230.493 42.2553 230.204 42.442C229.914 42.6287 229.686 42.8807 229.518 43.198C229.35 43.5153 229.27 43.8793 229.28 44.29C229.27 44.6913 229.35 45.0553 229.518 45.382C229.686 45.6993 229.914 45.9513 230.204 46.138C230.493 46.3153 230.824 46.404 231.198 46.404ZM239.973 51.22C239.385 51.22 238.807 51.1313 238.237 50.954C237.668 50.786 237.206 50.5667 236.851 50.296L237.551 48.868C237.738 48.9987 237.953 49.1153 238.195 49.218C238.438 49.3207 238.69 49.4 238.951 49.456C239.222 49.512 239.497 49.54 239.777 49.54C240.263 49.54 240.659 49.4653 240.967 49.316C241.285 49.1667 241.523 48.9427 241.681 48.644C241.84 48.3547 241.919 47.9813 241.919 47.524V46.236L242.255 46.306C242.199 46.614 242.045 46.8987 241.793 47.16C241.541 47.412 241.224 47.6173 240.841 47.776C240.459 47.9253 240.067 48 239.665 48C238.975 48 238.363 47.8413 237.831 47.524C237.299 47.2067 236.879 46.768 236.571 46.208C236.263 45.648 236.109 45.004 236.109 44.276C236.109 43.5293 236.259 42.8713 236.557 42.302C236.865 41.7233 237.281 41.2707 237.803 40.944C238.335 40.608 238.937 40.44 239.609 40.44C239.889 40.44 240.155 40.4727 240.407 40.538C240.669 40.6033 240.907 40.6967 241.121 40.818C241.345 40.93 241.541 41.0607 241.709 41.21C241.887 41.35 242.031 41.504 242.143 41.672C242.255 41.84 242.325 42.008 242.353 42.176L241.947 42.288L242.003 40.594H243.907V47.44C243.907 48.0467 243.819 48.5833 243.641 49.05C243.464 49.5167 243.203 49.9087 242.857 50.226C242.521 50.5527 242.106 50.8 241.611 50.968C241.126 51.136 240.58 51.22 239.973 51.22ZM240.029 46.404C240.421 46.404 240.762 46.3153 241.051 46.138C241.35 45.9607 241.579 45.7133 241.737 45.396C241.896 45.0787 241.975 44.7053 241.975 44.276C241.975 43.856 241.896 43.4873 241.737 43.17C241.579 42.8433 241.35 42.5913 241.051 42.414C240.762 42.2367 240.421 42.148 240.029 42.148C239.647 42.148 239.306 42.2413 239.007 42.428C238.718 42.6053 238.494 42.8527 238.335 43.17C238.177 43.4873 238.097 43.856 238.097 44.276C238.097 44.696 238.177 45.0693 238.335 45.396C238.494 45.7133 238.718 45.9607 239.007 46.138C239.306 46.3153 239.647 46.404 240.029 46.404ZM246.919 51.22L248.543 47.412L248.571 48.56L244.959 40.594H247.213L249.019 44.864C249.093 45.0227 249.163 45.2093 249.229 45.424C249.303 45.6293 249.364 45.83 249.411 46.026L249.075 46.166C249.131 46.0073 249.196 45.8253 249.271 45.62C249.345 45.4147 249.42 45.1953 249.495 44.962L251.049 40.594H253.317L250.209 48L248.935 51.22H246.919Z" fill="white"/>
<path d="M24.08 50L22.628 46.392L31.736 36.316C32.2347 35.788 32.7627 35.172 33.32 34.468C33.9067 33.764 34.464 33.0453 34.992 32.312C35.5493 31.5493 35.9893 30.816 36.312 30.112C36.6347 29.3787 36.796 28.7187 36.796 28.132C36.796 27.4573 36.6493 26.8707 36.356 26.372C36.0627 25.844 35.6373 25.4333 35.08 25.14C34.5227 24.8467 33.8333 24.7 33.012 24.7C32.2493 24.7 31.5307 24.9053 30.856 25.316C30.1813 25.6973 29.5507 26.2693 28.964 27.032C28.3773 27.7947 27.864 28.7187 27.424 29.804L22.496 27.032C23.0827 25.3307 23.9187 23.8493 25.004 22.588C26.0893 21.3267 27.38 20.344 28.876 19.64C30.372 18.936 31.9707 18.584 33.672 18.584C35.4613 18.6133 37.0747 18.9947 38.512 19.728C39.9493 20.4613 41.0787 21.488 41.9 22.808C42.7213 24.128 43.132 25.6533 43.132 27.384C43.132 28.0293 43.0587 28.6893 42.912 29.364C42.7947 30.0387 42.5747 30.7427 42.252 31.476C41.9587 32.2093 41.5627 32.9867 41.064 33.808C40.5947 34.6 40.008 35.4507 39.304 36.36C38.6293 37.24 37.852 38.164 36.972 39.132L29.976 46.744L29.096 44.06H44.408V50H24.08ZM59.4495 50.44C56.8095 50.44 54.5508 49.8093 52.6735 48.548C50.8255 47.2867 49.4028 45.4827 48.4055 43.136C47.4375 40.76 46.9535 37.9147 46.9535 34.6C46.9535 31.2853 47.4375 28.4547 48.4055 26.108C49.4028 23.732 50.8255 21.9133 52.6735 20.652C54.5508 19.3907 56.8095 18.76 59.4495 18.76C62.0895 18.76 64.3481 19.3907 66.2255 20.652C68.1028 21.9133 69.5255 23.732 70.4935 26.108C71.4908 28.4547 71.9895 31.2853 71.9895 34.6C71.9895 37.9147 71.4908 40.76 70.4935 43.136C69.5255 45.4827 68.1028 47.2867 66.2255 48.548C64.3481 49.8093 62.0895 50.44 59.4495 50.44ZM59.4495 44.764C61.4148 44.764 62.9401 43.884 64.0255 42.124C65.1108 40.364 65.6535 37.856 65.6535 34.6C65.6535 31.2853 65.1108 28.7333 64.0255 26.944C62.9401 25.1547 61.4148 24.26 59.4495 24.26C57.4548 24.26 55.9148 25.1547 54.8295 26.944C53.7735 28.7333 53.2455 31.2853 53.2455 34.6C53.2455 37.856 53.7735 40.364 54.8295 42.124C55.9148 43.884 57.4548 44.764 59.4495 44.764Z" fill="white"/>
</g>
<defs>
<filter id="filter0_d_77_178" x="0" y="0" width="306" height="100" filterUnits="userSpaceOnUse" color-interpolation-filters="sRGB">
<feFlood flood-opacity="0" result="BackgroundImageFix"/>
<feColorMatrix in="SourceAlpha" type="matrix" values="0 0 0 0 0 0 0 0 0 0 0 0 0 0 0 0 0 0 127 0" result="hardAlpha"/>
<feOffset dx="15" dy="15"/>
<feGaussianBlur stdDeviation="7.5"/>
<feComposite in2="hardAlpha" operator="out"/>
<feColorMatrix type="matrix" values="0 0 0 0 0 0 0 0 0 0 0 0 0 0 0 0 0 0 0.5 0"/>
<feBlend mode="normal" in2="BackgroundImageFix" result="effect1_dropShadow_77_178"/>
<feBlend mode="normal" in="SourceGraphic" in2="effect1_dropShadow_77_178" result="shape"/>
</filter>
</defs>
</svg>
