<svg width="55" height="73" viewBox="0 0 55 73" fill="none" xmlns="http://www.w3.org/2000/svg">
<path d="M2.88992 70.1C2.44992 70.1 2.05326 70.0233 1.69992 69.87C1.34659 69.7167 1.05326 69.49 0.819922 69.19L1.51992 68.59C1.71992 68.8233 1.93659 68.9933 2.16992 69.1C2.40992 69.2 2.67992 69.25 2.97992 69.25C3.09992 69.25 3.20992 69.2367 3.30992 69.21C3.41659 69.1767 3.50659 69.13 3.57992 69.07C3.65992 69.01 3.71992 68.94 3.75992 68.86C3.79992 68.7733 3.81992 68.68 3.81992 68.58C3.81992 68.4067 3.75659 68.2667 3.62992 68.16C3.56326 68.1133 3.45659 68.0633 3.30992 68.01C3.16992 67.95 2.98659 67.89 2.75992 67.83C2.37326 67.73 2.05659 67.6167 1.80992 67.49C1.56326 67.3633 1.37326 67.22 1.23992 67.06C1.13992 66.9333 1.06659 66.7967 1.01992 66.65C0.973255 66.4967 0.949922 66.33 0.949922 66.15C0.949922 65.93 0.996589 65.73 1.08992 65.55C1.18992 65.3633 1.32326 65.2033 1.48992 65.07C1.66326 64.93 1.86326 64.8233 2.08992 64.75C2.32326 64.6767 2.56992 64.64 2.82992 64.64C3.07659 64.64 3.31992 64.6733 3.55992 64.74C3.80659 64.8067 4.03326 64.9033 4.23992 65.03C4.44659 65.1567 4.61992 65.3067 4.75992 65.48L4.16992 66.13C4.04326 66.0033 3.90326 65.8933 3.74992 65.8C3.60326 65.7 3.45326 65.6233 3.29992 65.57C3.14659 65.5167 3.00659 65.49 2.87992 65.49C2.73992 65.49 2.61326 65.5033 2.49992 65.53C2.38659 65.5567 2.28992 65.5967 2.20992 65.65C2.13659 65.7033 2.07992 65.77 2.03992 65.85C1.99992 65.93 1.97992 66.02 1.97992 66.12C1.98659 66.2067 2.00659 66.29 2.03992 66.37C2.07992 66.4433 2.13326 66.5067 2.19992 66.56C2.27326 66.6133 2.38326 66.67 2.52992 66.73C2.67659 66.79 2.86326 66.8467 3.08992 66.9C3.42326 66.9867 3.69659 67.0833 3.90992 67.19C4.12992 67.29 4.30326 67.4067 4.42992 67.54C4.56326 67.6667 4.65659 67.8133 4.70992 67.98C4.76326 68.1467 4.78992 68.3333 4.78992 68.54C4.78992 68.84 4.70326 69.11 4.52992 69.35C4.36326 69.5833 4.13659 69.7667 3.84992 69.9C3.56326 70.0333 3.24326 70.1 2.88992 70.1ZM8.15508 70.1C7.66841 70.1 7.23174 69.98 6.84508 69.74C6.46508 69.5 6.16174 69.1733 5.93508 68.76C5.71508 68.3467 5.60508 67.8833 5.60508 67.37C5.60508 66.8567 5.71508 66.3933 5.93508 65.98C6.16174 65.5667 6.46508 65.24 6.84508 65C7.23174 64.76 7.66841 64.64 8.15508 64.64C8.62174 64.64 9.04508 64.7367 9.42508 64.93C9.81174 65.1167 10.1051 65.3733 10.3051 65.7L9.73508 66.4C9.62841 66.2467 9.49174 66.1067 9.32508 65.98C9.15841 65.8533 8.98175 65.7533 8.79508 65.68C8.60841 65.6067 8.42841 65.57 8.25508 65.57C7.93508 65.57 7.64841 65.65 7.39508 65.81C7.14841 65.9633 6.95174 66.1767 6.80508 66.45C6.65841 66.7233 6.58508 67.03 6.58508 67.37C6.58508 67.71 6.66174 68.0167 6.81508 68.29C6.96841 68.5567 7.17174 68.77 7.42508 68.93C7.67841 69.09 7.95841 69.17 8.26508 69.17C8.44508 69.17 8.61841 69.14 8.78508 69.08C8.95841 69.02 9.12508 68.93 9.28508 68.81C9.44508 68.69 9.59508 68.5433 9.73508 68.37L10.3051 69.07C10.0917 69.37 9.78508 69.6167 9.38508 69.81C8.99175 70.0033 8.58175 70.1 8.15508 70.1ZM11.2766 70V64.75H12.3166V66.4L12.2166 66C12.29 65.7467 12.4133 65.5167 12.5866 65.31C12.7666 65.1033 12.97 64.94 13.1966 64.82C13.43 64.7 13.67 64.64 13.9166 64.64C14.03 64.64 14.1366 64.65 14.2366 64.67C14.3433 64.69 14.4266 64.7133 14.4866 64.74L14.2166 65.86C14.1366 65.8267 14.0466 65.8 13.9466 65.78C13.8533 65.7533 13.76 65.74 13.6666 65.74C13.4866 65.74 13.3133 65.7767 13.1466 65.85C12.9866 65.9167 12.8433 66.0133 12.7166 66.14C12.5966 66.26 12.5 66.4033 12.4266 66.57C12.3533 66.73 12.3166 66.9067 12.3166 67.1V70H11.2766ZM17.4452 70.1C16.9319 70.1 16.4719 69.9833 16.0652 69.75C15.6652 69.51 15.3486 69.1867 15.1152 68.78C14.8819 68.3667 14.7652 67.8967 14.7652 67.37C14.7652 66.8433 14.8819 66.3767 15.1152 65.97C15.3486 65.5567 15.6652 65.2333 16.0652 65C16.4719 64.76 16.9319 64.64 17.4452 64.64C17.9519 64.64 18.4052 64.76 18.8052 65C19.2119 65.2333 19.5319 65.5567 19.7652 65.97C19.9986 66.3767 20.1152 66.8433 20.1152 67.37C20.1152 67.8967 19.9986 68.3667 19.7652 68.78C19.5319 69.1867 19.2119 69.51 18.8052 69.75C18.4052 69.9833 17.9519 70.1 17.4452 70.1ZM17.4452 69.16C17.7586 69.16 18.0386 69.0833 18.2852 68.93C18.5319 68.77 18.7252 68.5567 18.8652 68.29C19.0052 68.0167 19.0719 67.71 19.0652 67.37C19.0719 67.0233 19.0052 66.7167 18.8652 66.45C18.7252 66.1767 18.5319 65.9633 18.2852 65.81C18.0386 65.6567 17.7586 65.58 17.4452 65.58C17.1319 65.58 16.8486 65.66 16.5952 65.82C16.3486 65.9733 16.1552 66.1867 16.0152 66.46C15.8752 66.7267 15.8086 67.03 15.8152 67.37C15.8086 67.71 15.8752 68.0167 16.0152 68.29C16.1552 68.5567 16.3486 68.77 16.5952 68.93C16.8486 69.0833 17.1319 69.16 17.4452 69.16ZM21.2576 70V62.6H22.2876V70H21.2576ZM23.7673 70V62.6H24.7973V70H23.7673ZM31.2498 70.1C30.7698 70.1 30.3398 69.9833 29.9598 69.75C29.5865 69.51 29.2898 69.1867 29.0698 68.78C28.8498 68.3667 28.7398 67.8967 28.7398 67.37C28.7398 66.8433 28.8465 66.3767 29.0598 65.97C29.2798 65.5567 29.5765 65.2333 29.9498 65C30.3232 64.76 30.7465 64.64 31.2198 64.64C31.4798 64.64 31.7298 64.6833 31.9698 64.77C32.2165 64.85 32.4365 64.9633 32.6298 65.11C32.8232 65.25 32.9732 65.4067 33.0798 65.58C33.1932 65.7467 33.2498 65.9167 33.2498 66.09L32.9498 66.11V62.6H33.9798V70H32.9498V68.75H33.1498C33.1498 68.91 33.0965 69.07 32.9898 69.23C32.8832 69.3833 32.7398 69.5267 32.5598 69.66C32.3865 69.7933 32.1832 69.9 31.9498 69.98C31.7232 70.06 31.4898 70.1 31.2498 70.1ZM31.3898 69.21C31.7032 69.21 31.9798 69.13 32.2198 68.97C32.4598 68.81 32.6465 68.5933 32.7798 68.32C32.9198 68.04 32.9898 67.7233 32.9898 67.37C32.9898 67.0167 32.9198 66.7033 32.7798 66.43C32.6465 66.15 32.4598 65.93 32.2198 65.77C31.9798 65.61 31.7032 65.53 31.3898 65.53C31.0765 65.53 30.7998 65.61 30.5598 65.77C30.3198 65.93 30.1298 66.15 29.9898 66.43C29.8565 66.7033 29.7898 67.0167 29.7898 67.37C29.7898 67.7233 29.8565 68.04 29.9898 68.32C30.1298 68.5933 30.3198 68.81 30.5598 68.97C30.7998 69.13 31.0765 69.21 31.3898 69.21ZM37.7577 70.1C37.2444 70.1 36.7844 69.9833 36.3777 69.75C35.9777 69.51 35.6611 69.1867 35.4277 68.78C35.1944 68.3667 35.0777 67.8967 35.0777 67.37C35.0777 66.8433 35.1944 66.3767 35.4277 65.97C35.6611 65.5567 35.9777 65.2333 36.3777 65C36.7844 64.76 37.2444 64.64 37.7577 64.64C38.2644 64.64 38.7177 64.76 39.1177 65C39.5244 65.2333 39.8444 65.5567 40.0777 65.97C40.3111 66.3767 40.4277 66.8433 40.4277 67.37C40.4277 67.8967 40.3111 68.3667 40.0777 68.78C39.8444 69.1867 39.5244 69.51 39.1177 69.75C38.7177 69.9833 38.2644 70.1 37.7577 70.1ZM37.7577 69.16C38.0711 69.16 38.3511 69.0833 38.5977 68.93C38.8444 68.77 39.0377 68.5567 39.1777 68.29C39.3177 68.0167 39.3844 67.71 39.3777 67.37C39.3844 67.0233 39.3177 66.7167 39.1777 66.45C39.0377 66.1767 38.8444 65.9633 38.5977 65.81C38.3511 65.6567 38.0711 65.58 37.7577 65.58C37.4444 65.58 37.1611 65.66 36.9077 65.82C36.6611 65.9733 36.4677 66.1867 36.3277 66.46C36.1877 66.7267 36.1211 67.03 36.1277 67.37C36.1211 67.71 36.1877 68.0167 36.3277 68.29C36.4677 68.5567 36.6611 68.77 36.9077 68.93C37.1611 69.0833 37.4444 69.16 37.7577 69.16ZM42.6448 70L40.8548 64.75L41.8948 64.74L43.1748 68.67L42.9448 68.65L44.3348 65.58H44.9548L46.3548 68.66L46.0848 68.68L47.3748 64.75H48.4148L46.6448 70H45.9348L44.4748 66.66L44.7048 66.69L43.3448 70H42.6448ZM49.3528 70V64.75H50.3828V65.83L50.2028 65.95C50.2695 65.7167 50.3995 65.5033 50.5928 65.31C50.7861 65.11 51.0161 64.95 51.2828 64.83C51.5495 64.7033 51.8228 64.64 52.1028 64.64C52.5028 64.64 52.8361 64.72 53.1028 64.88C53.3695 65.0333 53.5695 65.27 53.7028 65.59C53.8361 65.91 53.9028 66.3133 53.9028 66.8V70H52.8728V66.87C52.8728 66.57 52.8328 66.3233 52.7528 66.13C52.6728 65.93 52.5495 65.7867 52.3828 65.7C52.2161 65.6067 52.0095 65.5667 51.7628 65.58C51.5628 65.58 51.3795 65.6133 51.2128 65.68C51.0461 65.74 50.8995 65.8267 50.7728 65.94C50.6528 66.0533 50.5561 66.1867 50.4828 66.34C50.4161 66.4867 50.3828 66.6467 50.3828 66.82V70H49.8728C49.7861 70 49.6995 70 49.6128 70C49.5261 70 49.4395 70 49.3528 70Z" fill="white"/>
<rect x="17" y="1" width="22" height="50.3636" rx="11" stroke="white" stroke-width="2"/>
<path d="M35.0153 33.7653L28.2653 40.5153C28.2305 40.5502 28.1891 40.5778 28.1436 40.5967C28.098 40.6156 28.0492 40.6253 28 40.6253C27.9507 40.6253 27.9019 40.6156 27.8564 40.5967C27.8108 40.5778 27.7695 40.5502 27.7347 40.5153L20.9847 33.7653C20.9143 33.6949 20.8748 33.5995 20.8748 33.5C20.8748 33.4005 20.9143 33.3051 20.9847 33.2347C21.055 33.1643 21.1505 33.1248 21.25 33.1248C21.3495 33.1248 21.4449 33.1643 21.5153 33.2347L27.625 39.3444V23.75C27.625 23.6505 27.6645 23.5552 27.7348 23.4848C27.8051 23.4145 27.9005 23.375 28 23.375C28.0994 23.375 28.1948 23.4145 28.2651 23.4848C28.3355 23.5552 28.375 23.6505 28.375 23.75V39.3444L34.4847 33.2347C34.555 33.1643 34.6505 33.1248 34.75 33.1248C34.8495 33.1248 34.9449 33.1643 35.0153 33.2347C35.0856 33.3051 35.1252 33.4005 35.1252 33.5C35.1252 33.5995 35.0856 33.6949 35.0153 33.7653Z" fill="white"/>
</svg>
