<svg width="32" height="32" viewBox="0 0 32 32" fill="none" xmlns="http://www.w3.org/2000/svg">
<g clip-path="url(#clip0_89_70)">
<path d="M26.6667 23.3333C27.1803 23.3336 27.6742 23.5314 28.0459 23.8859C28.4176 24.2403 28.6387 24.7242 28.6634 25.2372C28.6881 25.7502 28.5145 26.2531 28.1785 26.6416C27.8425 27.0301 27.3699 27.2744 26.8587 27.324L26.6667 27.3333H5.33337C4.81975 27.3331 4.32591 27.1352 3.95419 26.7808C3.58247 26.4263 3.36136 25.9425 3.33668 25.4294C3.31199 24.9164 3.48563 24.4135 3.82161 24.0251C4.15759 23.6366 4.63015 23.3922 5.14137 23.3427L5.33337 23.3333H26.6667ZM26.6667 14C27.1971 14 27.7058 14.2107 28.0809 14.5858C28.456 14.9608 28.6667 15.4696 28.6667 16C28.6667 16.5304 28.456 17.0391 28.0809 17.4142C27.7058 17.7893 27.1971 18 26.6667 18H5.33337C4.80294 18 4.29423 17.7893 3.91916 17.4142C3.54409 17.0391 3.33337 16.5304 3.33337 16C3.33337 15.4696 3.54409 14.9608 3.91916 14.5858C4.29423 14.2107 4.80294 14 5.33337 14H26.6667ZM26.6667 4.66666C27.1971 4.66666 27.7058 4.87737 28.0809 5.25244C28.456 5.62752 28.6667 6.13622 28.6667 6.66666C28.6667 7.19709 28.456 7.7058 28.0809 8.08087C27.7058 8.45594 27.1971 8.66666 26.6667 8.66666H5.33337C4.80294 8.66666 4.29423 8.45594 3.91916 8.08087C3.54409 7.7058 3.33337 7.19709 3.33337 6.66666C3.33337 6.13622 3.54409 5.62752 3.91916 5.25244C4.29423 4.87737 4.80294 4.66666 5.33337 4.66666H26.6667Z" fill="white"/>
</g>
<defs>
<clipPath id="clip0_89_70">
<rect width="32" height="32" fill="white"/>
</clipPath>
</defs>
</svg>
